<?xml version="1.0" encoding="UTF-8" standalone="no"?>
<svg
   version="1.1"
   width="1440"
   height="560"
   preserveAspectRatio="none"
   viewBox="0 0 1440 560"
   id="svg15"
   sodipodi:docname="waveBackgroundLine.svg"
   inkscape:version="1.1.2 (0a00cf5339, 2022-02-04)"
   xmlns:inkscape="http://www.inkscape.org/namespaces/inkscape"
   xmlns:sodipodi="http://sodipodi.sourceforge.net/DTD/sodipodi-0.dtd"
   xmlns="http://www.w3.org/2000/svg"
   xmlns:svg="http://www.w3.org/2000/svg">
  <sodipodi:namedview
     id="namedview17"
     pagecolor="#ffffff"
     bordercolor="#666666"
     borderopacity="1.0"
     inkscape:pageshadow="2"
     inkscape:pageopacity="0.0"
     inkscape:pagecheckerboard="0"
     showgrid="false"
     inkscape:zoom="0.23993056"
     inkscape:cx="873.1693"
     inkscape:cy="252.15629"
     inkscape:window-width="1920"
     inkscape:window-height="1016"
     inkscape:window-x="0"
     inkscape:window-y="0"
     inkscape:window-maximized="1"
     inkscape:current-layer="svg15" />
  <g
     mask="url(&quot;#SvgjsMask1130&quot;)"
     fill="none"
     id="g8"
     style="opacity:0.07">
    <path
       d="M -730.8878157745945,484 C -586.89,417.4 -298.89,147.2 -10.887815774594536,151 C 277.11,154.8 421.11,517.4 709.1121842254055,503 C 997.11,488.6 1282.93,74.8 1429.1121842254054,79 C 1575.29,83.2 1437.82,435 1440,524"
       stroke="rgba(6, 100, 95, 1)"
       stroke-width="2"
       id="path2" />
    <path
       d="M -590.5097856004506,304 C -446.51,273 -158.51,129.6 129.49021439954942,149 C 417.49,168.4 561.49,387.4 849.4902143995494,401 C 1137.49,414.6 1451.39,193.2 1569.4902143995494,217 C 1687.59,240.8 1465.9,459.4 1440,520"
       stroke="rgba(6, 100, 95, 1)"
       stroke-width="2"
       id="path4" />
    <path
       d="M -648.2729151848766,267 C -504.27,307 -216.27,478.2 71.72708481512336,467 C 359.73,455.8 503.73,232.4 791.7270848151234,211 C 1079.73,189.6 1382.07,355.4 1511.7270848151234,360 C 1641.38,364.6 1454.35,259.2 1440,234"
       stroke="rgba(6, 100, 95, 1)"
       stroke-width="2"
       id="path6" />
  </g>
  <defs
     id="defs13">
    <mask
       id="SvgjsMask1130">
      <rect
         width="1440"
         height="560"
         fill="#ffffff"
         id="rect10" />
    </mask>
  </defs>
</svg>
