<?xml version="1.0" encoding="UTF-8"?>
<!-- Generator: Adobe Illustrator 26.0.2, SVG Export Plug-In . SVG Version: 6.00 Build 0)  -->
<svg version="1.1" id="Layer_1" xmlns="http://www.w3.org/2000/svg" xmlns:xlink="http://www.w3.org/1999/xlink" x="0px" y="0px" viewBox="0 0 981 500" style="enable-background:new 0 0 981 500;" xml:space="preserve">
<style type="text/css">
	.st0{fill:#4867A6;}
	.st1{fill:none;}
	.st2{fill:#FFFFFF;}
	.st3{fill:#93B1DB;}
</style>
<g>
	<path class="st0" d="M32.5,174h57.8c16.7-0.2,33.6-0.2,45.7,10.2c9.4,8.1,13.1,19.2,13.1,29c0,28.2-24.2,34.8-31.5,36.9   c22.7,2.1,24.4,15,27.1,34.6c2.3,17.7,3.5,25,4.6,29.2c1.7,6.7,2.9,8.3,4.6,10.8h-35.7c-1.5-8.3-6-46.5-8.1-52.4   c-2.9-8.6-10.8-8.6-16.3-8.6H65.5v60.9h-33V174z M64.4,239.9h26.1c3.8,0,11.3,0,16.5-4.2c2.3-1.7,8.3-6.9,8.3-17.5   c0-10.2-5-15-7.9-16.9c-5-3.5-11.1-3.5-21.3-3.5H64.4V239.9z"/>
	<path class="st0" d="M171.6,174h52.8l31.9,109.7L290.7,174H342v150.8h-32.1V195.5l-41.1,129.3h-26.7l-40.3-129.3v129.3h-30.2   L171.6,174L171.6,174z"/>
	<path class="st0" d="M368.5,173.6h32.3v151.2h-32.3V173.6z"/>
</g>
<rect class="st1" width="980" height="499.5"/>
<circle class="st0" cx="731" cy="251" r="240"/>
<path class="st2" d="M884,247.5l-29-14.9l-14.8-7.6l0,0L816,212.5c-1-0.6-2.3-0.6-3.4-0.2c11.4,24.7,11.4,53.1,0,77.8  c0.5,0.2,1,0.3,1.5,0.3c0.7,0,1.3-0.2,1.9-0.5l24.1-12.4l8.5-4.4L884,255c2.1-1.1,2.9-3.6,1.8-5.6C885.4,248.6,884.8,248,884,247.5"/>
<path class="st2" d="M800.9,161.4c6.3,5.2,12,11.1,17.1,17.5c4.6,0.5,9.1,1.8,13.3,3.9l13.5,7c-12.5-24-31.8-43.6-55.6-56.4  l7.8,15.1C799.1,152.5,800.4,156.9,800.9,161.4"/>
<path class="st2" d="M817.9,323.6c-5.1,6.4-10.8,12.2-17,17.4c-0.5,4.5-1.8,8.9-3.9,12.9l-7.8,15.1c23.7-12.8,43.1-32.4,55.6-56.3  l-13.5,7C827.1,321.8,822.6,323.1,817.9,323.6"/>
<path class="st2" d="M633.5,179.9c6.7-8.7,14.6-16.5,23.5-23c0.7-2.9,1.7-5.7,3.1-8.4l9.5-18.4c-27.8,13.1-50.3,35.3-63.8,63  l20-10.3C628.3,181.6,630.9,180.6,633.5,179.9"/>
<path class="st2" d="M609.8,273.8l31.4,16.1c0.6,0.3,1.2,0.5,1.9,0.5c0.5,0,1-0.1,1.5-0.3c-11.4-24.7-11.4-53.1,0-77.8  c-1.1-0.4-2.3-0.4-3.4,0.2l-29.5,15.2l-18.3,9.4l-20.2,10.4c-2.1,1.1-2.9,3.6-1.8,5.6c0.4,0.8,1,1.4,1.8,1.8l20.2,10.4L609.8,273.8z  "/>
<path class="st2" d="M657,345.5c-8.8-6.5-16.7-14.2-23.4-22.9c-2.7-0.7-5.3-1.7-7.7-2.9l-20-10.3c13.4,27.6,35.9,49.8,63.7,62.9  l-9.4-18.3C658.7,351.2,657.6,348.4,657,345.5"/>
<path class="st3" d="M728.6,158.6c13.4,0,26.7,2.9,38.9,8.6c0.4-1.1,0.4-2.3-0.2-3.4l-17.5-34l-5.7-11l-11.8-22.9  c-1.1-2.1-3.6-2.9-5.6-1.8c-0.8,0.4-1.4,1-1.8,1.8l-15.4,29.9l-5.4,10.6L690,163.8c-0.5,1-0.6,2.3-0.2,3.4  C701.9,161.5,715.2,158.6,728.6,158.6"/>
<path class="st2" d="M728.6,343.8c-13.4,0-26.7-2.9-38.9-8.6c-0.4,1.1-0.4,2.3,0.2,3.4L704,366l0,0l9.4,18.2l11.5,22.4  c1.1,2.1,3.6,2.9,5.6,1.8c0.8-0.4,1.4-1,1.8-1.8l11.8-23l4.1-8l19.1-37c0.5-1,0.6-2.3,0.2-3.4C755.3,340.9,742,343.9,728.6,343.8"/>
</svg>