<?xml version="1.0" encoding="UTF-8" standalone="no"?>
<svg
   height="18px"
   version="1.1"
   viewBox="0 0 18 18"
   width="18px"
   id="svg12"
   sodipodi:docname="326545_call_phone_icon.svg"
   inkscape:version="1.1.2 (0a00cf5339, 2022-02-04)"
   xmlns:inkscape="http://www.inkscape.org/namespaces/inkscape"
   xmlns:sodipodi="http://sodipodi.sourceforge.net/DTD/sodipodi-0.dtd"
   xmlns="http://www.w3.org/2000/svg"
   xmlns:svg="http://www.w3.org/2000/svg">
  <sodipodi:namedview
     id="namedview14"
     pagecolor="#ffffff"
     bordercolor="#666666"
     borderopacity="1.0"
     inkscape:pageshadow="2"
     inkscape:pageopacity="0.0"
     inkscape:pagecheckerboard="0"
     showgrid="false"
     inkscape:zoom="39.944444"
     inkscape:cx="9"
     inkscape:cy="9"
     inkscape:window-width="1920"
     inkscape:window-height="1016"
     inkscape:window-x="0"
     inkscape:window-y="0"
     inkscape:window-maximized="1"
     inkscape:current-layer="svg12" />
  <title
     id="title2" />
  <desc
     id="desc4" />
  <defs
     id="defs6" />
  <g
     fill="none"
     fill-rule="evenodd"
     id="Page-1"
     stroke="none"
     stroke-width="1"
     style="fill:#ffffff">
    <g
       fill="#000000"
       id="Icons-Communication"
       transform="translate(-85.000000, -126.000000)"
       style="fill:#ffffff">
      <g
         id="phone"
         transform="translate(85.000000, 126.000000)"
         style="fill:#ffffff">
        <path
           d="M3.6,7.8 C5,10.6 7.4,12.9 10.2,14.4 L12.4,12.2 C12.7,11.9 13.1,11.8 13.4,12 C14.5,12.4 15.7,12.6 17,12.6 C17.6,12.6 18,13 18,13.6 L18,17 C18,17.6 17.6,18 17,18 C7.6,18 0,10.4 0,1 C0,0.4 0.4,0 1,0 L4.5,0 C5.1,0 5.5,0.4 5.5,1 C5.5,2.2 5.7,3.4 6.1,4.6 C6.2,4.9 6.1,5.3 5.9,5.6 L3.6,7.8 L3.6,7.8 Z"
           id="Shape"
           style="fill:#ffffff" />
      </g>
    </g>
  </g>
</svg>
