<svg xmlns="http://www.w3.org/2000/svg" viewBox="0 0 213.98 116.86"><defs><style>.cls-1{fill:#fff;}</style></defs><g id="Layer_2" data-name="Layer 2"><g id="Layer_1-2" data-name="Layer 1"><path class="cls-1" d="M195.54,0H18.24A18.26,18.26,0,0,0,0,18.24L.2,98.62a18.26,18.26,0,0,0,18.24,18.24H195.73A18.27,18.27,0,0,0,214,98.62l-.2-80.38A18.26,18.26,0,0,0,195.54,0ZM205,98.62a9.25,9.25,0,0,1-9.25,9.24H18.44A9.24,9.24,0,0,1,9.2,98.62L9,18.24A9.24,9.24,0,0,1,18.24,9h177.3a9.24,9.24,0,0,1,9.24,9.24Z"/><path class="cls-1" d="M167.11,66.36l14.47-32.63V71h8.88V32.9a9.66,9.66,0,0,0-4.79-8.48A7.94,7.94,0,0,0,174.37,28L159.92,60.63,145.46,28a7.94,7.94,0,0,0-11.3-3.59,9.66,9.66,0,0,0-4.79,8.48V71h8.88V33.73l14.47,32.63a7.87,7.87,0,0,0,14.39,0Z"/><path class="cls-1" d="M101.06,23.32A7.89,7.89,0,0,0,93.85,28L74.78,71h9.73l16.55-37.31L117.61,71h9.72L108.27,28A7.88,7.88,0,0,0,101.06,23.32Z"/><path class="cls-1" d="M72.55,71,63.9,54.26,65,53.74A16,16,0,0,0,57.9,23.32H23.36V71h8.9V55.4H54.47L62.53,71ZM32.26,46.5V32.22H57.9a7.14,7.14,0,1,1,0,14.28Z"/><polygon class="cls-1" points="25.2 90.16 30.55 90.16 30.55 88.61 25.2 88.61 25.2 86.94 31.61 86.94 31.61 85.38 23.36 85.38 23.36 93.5 31.72 93.5 31.72 91.95 25.2 91.95 25.2 90.16"/><polygon class="cls-1" points="36.63 85.38 34.77 85.38 34.77 93.5 42.37 93.5 42.37 91.9 36.63 91.9 36.63 85.38"/><polygon class="cls-1" points="46.97 90.16 52.31 90.16 52.31 88.61 46.97 88.61 46.97 86.94 53.37 86.94 53.37 85.38 45.12 85.38 45.12 93.5 53.48 93.5 53.48 91.95 46.97 91.95 46.97 90.16"/><polygon class="cls-1" points="60.56 91.66 57.5 85.38 55.47 85.38 59.56 93.5 61.52 93.5 65.62 85.38 63.61 85.38 60.56 91.66"/><path class="cls-1" d="M70.4,85.38,66.09,93.5h2L69,91.79h4.9l.87,1.71h2l-4.3-8.12Zm-.69,4.9L71.39,87l1.69,3.31Z"/><polygon class="cls-1" points="77.11 86.98 80.64 86.98 80.64 93.5 82.5 93.5 82.5 86.98 86.05 86.98 86.05 85.38 77.11 85.38 77.11 86.98"/><path class="cls-1" d="M93.13,85.13C90,85.13,88,86.73,88,89.44s2,4.32,5.16,4.32,5.16-1.6,5.16-4.32S96.3,85.13,93.13,85.13Zm0,7c-2,0-3.27-1-3.27-2.72s1.27-2.71,3.27-2.71,3.27,1,3.27,2.71S95.14,92.16,93.13,92.16Z"/><path class="cls-1" d="M110.5,88.06c0-1.76-1.5-2.68-3.48-2.68h-5.6V93.5h1.84V90.74h2.94l2.33,2.76h2.21l-2.5-2.89A2.58,2.58,0,0,0,110.5,88.06Zm-7.25,1.15V86.94h3.66c1,0,1.7.23,1.7,1.13s-.72,1.14-1.7,1.14Z"/><path class="cls-1" d="M117.88,88.5c-1.62-.12-2.78-.19-2.78-.89s1.35-.94,2.45-.93a5.31,5.31,0,0,1,3.32,1l1-1.29a7.1,7.1,0,0,0-4.34-1.24c-2.5,0-4.31.93-4.31,2.62s2.15,2.25,4.47,2.45c1.87.16,2.71.34,2.71,1s-.84,1-2.49,1A5.58,5.58,0,0,1,114,90.86l-1.07,1.26a7.47,7.47,0,0,0,5,1.64c2.87,0,4.39-1.12,4.39-2.72C122.28,89.26,120.46,88.71,117.88,88.5Z"/><polygon class="cls-1" points="133.83 86.97 132.37 86.97 132.37 89.31 129.66 89.31 129.66 90.68 132.37 90.68 132.37 93.04 133.83 93.04 133.83 90.68 136.5 90.68 136.5 89.31 133.83 89.31 133.83 86.97"/><polygon class="cls-1" points="146.41 85.38 144.56 85.38 144.56 93.5 152.15 93.5 152.15 91.9 146.41 91.9 146.41 85.38"/><rect class="cls-1" x="154.9" y="85.38" width="1.86" height="8.12"/><polygon class="cls-1" points="160.39 93.5 162.25 93.5 162.25 90.46 167.6 90.46 167.6 88.86 162.25 88.86 162.25 86.98 168.6 86.98 168.6 85.38 160.39 85.38 160.39 93.5"/><polygon class="cls-1" points="170.55 86.98 174.08 86.98 174.08 93.5 175.93 93.5 175.93 86.98 179.48 86.98 179.48 85.38 170.55 85.38 170.55 86.98"/><path class="cls-1" d="M186.29,88.5c-1.61-.12-2.77-.19-2.77-.89s1.35-.94,2.45-.93a5.31,5.31,0,0,1,3.32,1l1-1.29A7.14,7.14,0,0,0,186,85.13c-2.51,0-4.32.93-4.32,2.62s2.16,2.25,4.48,2.45c1.87.16,2.7.34,2.7,1s-.83,1-2.48,1a5.56,5.56,0,0,1-3.94-1.34l-1.07,1.26a7.43,7.43,0,0,0,5,1.64c2.88,0,4.4-1.12,4.4-2.72C190.7,89.26,188.88,88.71,186.29,88.5Z"/></g></g></svg>